<svg xmlns="http://www.w3.org/2000/svg" viewBox="0 0 193.21 160.61"><defs><style>.cls-1{fill:#f27940;}.cls-2{fill:#a9abae;}.cls-3{fill:#a8a7a8;}</style></defs><g id="Layer_2" data-name="Layer 2"><g id="Layer_1-2" data-name="Layer 1"><path class="cls-1" d="M.33,120.75c-.75-4.38,1-8.54,4.73-11.84,1.6-1.42,1.56-2.37.37-4.13-7.54-11-7.27-18.34,1.07-28.18C7.87,75,7.59,74.15,6.27,73c-11-9.69-6.35-27,6.88-33.22,26-12.29,51.12-26.33,77.4-38A17.1,17.1,0,0,1,101.14.3Q143,8.21,184.89,16.07c1.66.32,4,.13,4.33,2.53.28,2.14-1.85,2.51-3.23,3.29C162.49,35,138.93,48.11,115.48,61.36a21.17,21.17,0,0,1-15.74,2.36c-26.64-5.67-53.34-11.11-80-16.58-7-1.43-11.75,1.75-13.21,8.6S8.65,69.06,15,70.51c13.93,3.19,27.89,6.23,41.83,9.33,1,.22,1.94.47,2.92.66,2.71.53,3.52,2.36,3,4.79-.55,2.66-2.53,2-4.37,1.64-12.36-2.53-24.74-5-37.1-7.58-7.74-1.6-13.49,1.41-14.8,7.85-1.51,7.39,2.38,13.87,9.6,15.48,28.71,6.37,57.44,12.63,86.14,19,4.37,1,8.09-.18,11.87-2.33q35.38-20,70.88-39.83c1.16-.65,2.35-1.25,3.54-1.84A2.87,2.87,0,0,1,192.71,79a3,3,0,0,1-1.21,4.31c-1.11.72-2.27,1.38-3.42,2q-36.32,20.42-72.61,40.85a19.16,19.16,0,0,1-14.37,2.16c-26.89-6.14-53.82-12-80.91-17.21-7.26-1.39-12,1.35-13.64,8-1.65,6.84,2,13.77,8.46,15.21,29.34,6.57,58.71,13,88.07,19.45,3.8.84,7.14-.27,10.46-2.14q35.82-20.26,71.72-40.38c1-.57,2.05-1.1,3.06-1.68,1.84-1,3.3-.31,4.29,1.21a2.87,2.87,0,0,1-1,4.32c-2,1.26-4,2.41-6,3.55q-28.28,15.87-56.58,31.69c-5.36,3-10.88,5.66-16.38,8.39a18,18,0,0,1-12.54,1.34C72.12,153.69,44,147.57,16,141.33,4.19,138.7.37,133.8.33,120.75Zm84.37-94,.24,1.16c9.89,2,20,3.32,29.6,6.13,11.78,3.43,18.1-5.84,26.87-9.4-11.55-2.74-22.91-4.95-34.26-7.23a5.8,5.8,0,0,0-3.88.1Q94,22.13,84.7,26.76Z"/><path class="cls-2" d="M82,105.89c-2.13-2-3.68-3.25-5-4.72-2-2.23-3.79-2.83-6.31-.72s-4.2,1.4-4.28-2a227.06,227.06,0,0,1,.69-25.82c.19-2.19,1.28-3,3.27-2.56,3.25.63,6.5,1.26,9.7,2.07,2.85.71,3,3,3.09,5.5C83.42,86.71,82.61,95.77,82,105.89Z"/><path class="cls-3" d="M84.7,26.76q9.28-4.62,18.57-9.24a5.8,5.8,0,0,1,3.88-.1c11.35,2.28,22.71,4.49,34.26,7.23-8.77,3.56-15.09,12.83-26.87,9.4-9.64-2.81-19.71-4.14-29.6-6.13Z"/></g></g></svg>