<svg xmlns="http://www.w3.org/2000/svg" viewBox="0 0 167.17 194.92"><defs><style>.cls-1{fill:#f2773f;}.cls-2{fill:#f37d47;}.cls-3{fill:#f27a43;}.cls-4{fill:#f3824f;}</style></defs><g id="Layer_2" data-name="Layer 2"><g id="Layer_1-2" data-name="Layer 1"><path class="cls-1" d="M113.84,194.9c-7.78,0-15.56,0-23.33,0-10.94-.06-16.51-8.33-12.33-18.52,6.07-14.82,12.21-29.63,18.54-44.35a31.38,31.38,0,0,0,2.67-13.43c-.21-8.6,0-17.2-.09-25.81,0-2.76.58-4.35,3.82-4.28,7.11.16,14.23.14,21.34,0,3.1-.05,4,1.31,4,4.2-.1,9.59,0,19.19-.07,28.79a21,21,0,0,0,1.76,8.62q9.57,22.59,18.92,45.26c4.73,11.44-.61,19.49-12.87,19.52C128.73,194.92,121.28,194.9,113.84,194.9Zm-17.7-49.78h30.43c5.76,0,5.73,0,3.6-5.3-2.75-6.86-6.38-13.33-5.72-21.28.6-7.24-.07-14.57.2-21.85.14-3.61-1.15-4.59-4.54-4.35a67,67,0,0,1-11.42,0c-4.79-.5-6.13,1.18-6,6,.28,15.62,2.09,31.56-6.8,45.85C95.8,144.25,95.94,144.46,96.14,145.12Zm48,33.09c-3.66-8.06-7.53-16.61-11.45-25.12a1.52,1.52,0,0,0-2.1-.74,1.68,1.68,0,0,0-.85,2.46q5.49,12.42,11,24.83a1.78,1.78,0,0,0,2.39,1.14C144.09,180.43,144.27,179.65,144.17,178.21Z"/><path class="cls-2" d="M.08,89.41C.08,63.24.16,37.07,0,10.9,0,7.08.87,5.57,4.93,5.83c5.44.35,10.93.06,16.39.11,1.82,0,3.32-.14,3.44-2.47C24.93.29,27.13,0,29.68,0Q59.49,0,89.3,0c1.88,0,4.2,0,4.45,2.18.51,4.56,3.65,3.71,6.48,3.72,12.27,0,12.27,0,12.27,12.09,0,20.86,0,41.73-.07,62.6,0,1.62,1.46,4.65-1.71,4.71s-2-2.9-2-4.62c-.07-22-.15-44.06.05-66.08,0-4-1.17-5.35-5-4.89a63,63,0,0,1-6.45.06c-1.31,0-2.74-.15-3,1.76-.43,3.81-3.15,4.08-6.18,4.08q-28.57,0-57.14.05c-3.08,0-6.05,0-6.47-4.26-.2-2-2.21-1.61-3.63-1.63C16.62,9.74,12.3,10,8,9.7c-3.59-.23-4.44,1.22-4.4,4.57.14,15.07.06,30.14.06,45.21,0,34.78.08,69.56-.1,104.34,0,4.39,1.13,5.55,5.51,5.5,20.37-.24,40.74-.1,61.11-.1,1.16,0,2.32,0,3.48,0,1.36,0,2.19.63,2.13,2.11,0,1.27-.87,1.65-2,1.68-.83,0-1.65,0-2.48,0-22.19,0-44.39-.08-66.58.08-3.7,0-4.78-1-4.76-4.72C.16,142.07.08,115.74.08,89.41ZM62.21,3c-4.28,0-8.56,0-12.84,0-1.16,0-2.49,0-2.48,1.66,0,1.28,1.14,1.5,2.13,1.5q12.84,0,25.68,0c1,0,2.17-.24,2.25-1.44C77,3.17,75.74,3,74.56,3,70.44,3,66.33,3,62.21,3ZM86.13,6.24c1.45-.37,3.88.7,4.1-1.47C90.48,2.26,88,3,86.55,3c-1.63,0-4.3-.86-4.41,1.61C82.05,6.83,84.64,5.91,86.13,6.24Z"/><path class="cls-3" d="M161.09,58.86c-14.26,0-27.78,0-41.3-.06-1.51,0-4.19,1.2-4.28-1.66s2.58-2,4.19-2c14.4-.07,28.79,0,43.19,0,1.46,0,3.24-.33,4,1.23s-.39,2.92-1.51,3.88c-5.76,4.89-6.31,11.24-6.22,18.32.31,23.49,0,47,.2,70.49,0,4-.85,5.46-5.15,5.45-12.33,0-9,1.88-13.95-9.35a44.07,44.07,0,0,0-2-4.56c-7.26-12.45-7.36-26.08-6.89-39.88.12-3.37,1.61-3.77,4.29-3.68,5.29.18,10.59.07,15.88.31,3,.15,4.07-.93,4-4-.2-5.45-.06-10.92-.06-16.38C155.49,67.25,155.49,67.25,161.09,58.86Zm-6.94,63.45c0-5.12,0-10.23,0-15.34,0-1.43.18-3.31-1.92-3.35-1.74,0-1.85,1.63-1.86,2.94q0,15.59,0,31.16c0,1.36.2,2.9,1.94,2.86s1.85-1.57,1.85-2.94Q154.16,130,154.15,122.31Z"/><path class="cls-1" d="M18.07,126.26c0,9.91-.23,19.84.1,29.74.16,4.61-2.51,3.95-5.32,4s-4.95.17-4.91-3.93c.2-19.83-.12-39.67.24-59.49.11-5.7,1.87-11.37,2.89-17.05.19-1,.68-1.89,1.88-1.93s1.78.87,2,1.86c1,6.17,3.16,12.15,3.17,18.5Q18.08,112.13,18.07,126.26Z"/><path class="cls-2" d="M57.26,28.75c-12.41,0-24.81,0-37.22,0-1.47,0-3.73.76-3.84-1.81s2.15-2,3.65-2q37.21-.06,74.43,0c1.3,0,3.3-.7,3.32,1.73,0,2.64-2.08,2.09-3.62,2.1Q75.62,28.78,57.26,28.75Z"/><path class="cls-4" d="M57.3,38.87c12.08,0,24.16,0,36.24,0,1.53,0,4.14-1.06,4,2-.09,2.57-2.37,1.79-3.84,1.8q-36.73.06-73.48,0c-1.56,0-4.23,1-4.05-2,.18-2.77,2.74-1.81,4.35-1.82,12.24-.08,24.49-.05,36.74-.05Z"/><path class="cls-2" d="M57.26,52.85c11.91,0,23.82-.05,35.73.06,1.66,0,4.59-1.25,4.53,2,0,2.89-2.74,1.75-4.27,1.75q-36.48.12-72.95,0c-1.51,0-4.22,1.12-4.07-1.94.13-2.75,2.69-1.87,4.31-1.88C32.78,52.82,45,52.85,57.26,52.85Z"/><path class="cls-4" d="M57,70.77c-12.24,0-24.49,0-36.73,0-1.5,0-4.17,1.13-4-2,.11-2.43,2.36-1.83,3.89-1.84q36.72-.07,73.45,0c1.63,0,4.14-.77,4,2.16-.1,2.61-2.44,1.69-3.87,1.7C81.45,70.81,69.21,70.77,57,70.77Z"/><path class="cls-4" d="M57.77,96.37c10.11,0,20.21,0,30.32,0,1.29,0,3.33-.81,3.49,1.56.17,2.53-1.86,2.28-3.49,2.28q-30.56,0-61.12,0c-1.63,0-3.72.26-3.55-2.23.16-2.17,2.16-1.64,3.54-1.64C37.23,96.35,47.5,96.37,57.77,96.37Z"/><path class="cls-2" d="M57.77,128.28c-10.27,0-20.54,0-30.81,0-1.33,0-3.36.74-3.53-1.55-.18-2.46,1.8-2.31,3.48-2.31q30.57,0,61.14,0c1.51,0,3.7-.6,3.5,2.13-.16,2.25-2.08,1.71-3.46,1.72C78,128.3,67.88,128.28,57.77,128.28Z"/><path class="cls-2" d="M57.27,114.29c-9.93,0-19.86,0-29.79,0-1.5,0-3.81.76-3.95-1.7-.16-2.93,2.39-2.13,4-2.13q30-.08,60.08,0c1.42,0,3.76-1,3.91,1.64.17,3-2.35,2.19-4,2.2C77.46,114.32,67.37,114.29,57.27,114.29Z"/><path class="cls-4" d="M54.64,142.28c-9.25,0-18.51,0-27.77,0-1.34,0-3.38.64-3.45-1.65s1.94-2.23,3.6-2.23q28.26,0,56.54,0c1.43,0,3.22-.3,3.15,2s-1.95,1.83-3.3,1.84C73.82,142.3,64.23,142.28,54.64,142.28Z"/><path class="cls-4" d="M53.09,152.39c8.27,0,16.54,0,24.8,0,1.63,0,4.16-.82,4.13,2.05,0,2.55-2.37,1.77-3.84,1.77q-25.55.07-51.09,0c-1.42,0-3.8.84-3.65-1.89.13-2.37,2.29-1.94,3.86-1.94C35.9,152.38,44.5,152.39,53.09,152.39Z"/><path class="cls-1" d="M60.91,81.25c10.91,0,21.82,0,32.73,0,1.43,0,3.84-.9,3.85,1.69s-2.4,1.72-3.83,1.72q-33.22.12-66.45.06c-1.31,0-3.45.79-3.62-1.38-.21-2.52,2-2.1,3.6-2.11Q44.05,81.22,60.91,81.25Z"/></g></g></svg>