<svg xmlns="http://www.w3.org/2000/svg" viewBox="0 0 191.91 198.41"><defs><style>.cls-1{fill:#f57e43;}.cls-2{fill:#fefcfb;}.cls-3{fill:#f6834a;}.cls-4{fill:#f5793c;}</style></defs><g id="Layer_2" data-name="Layer 2"><g id="Layer_1-2" data-name="Layer 1"><path class="cls-1" d="M6.67,0H185.25a14.45,14.45,0,0,1,6.66,12.82c-.17,39.33-.07,78.66-.11,118,0,9.22-3.71,12.84-13,12.86-12.39,0-24.79.17-37.17-.1-4.07-.08-5.12,1.3-4.89,5.09.28,4.61.15,9.25,0,13.87a37.39,37.39,0,0,1-74.72.14c-.21-4.95-.27-9.92-.06-14.87.15-3.33-1.12-4.21-4.28-4.18-14.37.12-28.75,0-43.12,0C3.29,143.67.1,140.52.1,129.32c0-38.34.09-76.67-.1-115C0,8.2,1.48,3.39,6.67,0ZM113,20.09c-18,0-36,.08-54-.07-3.43,0-4.58.9-4.52,4.42.2,11.4.1,22.81.06,34.21,0,2.09.54,4.54-1.95,5.67-2.17,1-4-.46-5.33-1.76-4.18-4-8.06-4-12.26-.05-1.5,1.4-3.4,3-5.74,1.62s-1.67-3.78-1.68-5.87c0-11.41-.09-22.81.05-34.22,0-2.92-.72-4.06-3.86-4.05s-3.39,1.57-3.39,4q.06,47.61,0,95.2c0,3.25,1,4.26,4.22,4.21,10.91-.17,21.82-.22,32.72,0,3.76.09,4.79-1.1,4.73-4.78-.2-12.39,0-24.79-.09-37.19,0-5.5,2.12-9.67,7.22-11.9,7.85-3.44,16,2.27,16.22,11.59.25,10.58.11,21.16.06,31.74,0,2.78,0,4.81,4,3.94,4.67-1,7.66,3.11,11.38,4.46,3.26,1.18,7.93-2.46,12.15-.1a7,7,0,0,1,1.27.76c1.49,1.29,3.25,1.42,5.11,1.42,16,0,32.06-.1,48.09,0,3.3,0,4.18-1.09,4.17-4.26q-.15-47.36,0-94.71c0-3.5-1.08-4.45-4.5-4.42C149.07,20.17,131.05,20.09,113,20.09ZM68.31,121.68h0c0,13.22-.18,26.44,0,39.65.27,15.58,11.92,28.54,26.79,30.28,15.82,1.84,30.3-7.39,34-22.44,2.77-11.17,1.11-22.69,1.07-34A4.94,4.94,0,0,0,125.7,130c-3.06-.31-5.07,1.34-5.75,4.29-.48,2.08-1,4.12-3.56,3.94-2.84-.19-3-2.54-3.12-4.79-.11-3.41-1-6.51-5-6.85-3.59-.31-5.22,2.08-5.8,5.45-.3,1.76-1.47,3.06-3.48,2.79s-2.7-1.71-2.88-3.51c-.09-1,0-2-.15-3-.37-2.94-1.88-5-5-5.26-2.84-.2-4.66,1.49-5.34,4.2-.56,2.18-1.13,4.55-4,4-3-.54-2.74-3.25-2.74-5.58V95.56c0-4.62,0-9.25,0-13.87-.06-3.49-1.32-6.43-5.28-6.45s-5.37,2.67-5.38,6.3c0,1,0,2,0,3ZM136,129.89c1.3,7.18,1.3,7.18,7.78,7.18,11.74,0,23.47-.14,35.21.08,4.72.08,6.42-1.65,6.4-6.38q-.17-59,0-118c0-4.78-1.85-6.45-6.48-6.36-9.91.19-19.83.06-29.75.06H13.79c-6.37,0-7.16.7-7.16,6.53,0,39.34,0,78.68-.06,118,0,4.47,1.62,6.19,6.13,6.14,15-.17,30.08-.11,45.12,0,2.72,0,4.22-.37,4.24-3.7,0-3.49-1.78-3.56-4.36-3.55-12.39.07-24.79,0-37.18,0-6,0-6.7-.61-6.7-6.38,0-34.54,0-69.09-.06-103.63,0-4.33,1.3-6.22,6-6.21q76.11.18,152.21,0c4.45,0,6.23,1.41,6.22,6q-.16,52.07,0,104.13c0,4.87-2,6.28-6.55,6.19C159.91,129.74,148.19,129.89,136,129.89ZM34.15,55.17c4.38-3.1,8-4.91,12.06-1.17,1.8,1.64,2-.46,2-1.75,0-9.7,0-19.41,0-29.12,0-1.94-.47-3.14-2.74-3.07-2.95.1-5.92.06-8.88,0-1.62,0-2.45.68-2.45,2.31C34.14,33,34.15,43.63,34.15,55.17Z"/><path class="cls-2" d="M113.34,37.4h40.15a28.59,28.59,0,0,0,4.44-.21,3,3,0,0,0,2.75-3,3.09,3.09,0,0,0-3-3.28,30.81,30.81,0,0,0-3.47-.09H71.91a18.53,18.53,0,0,0-4,.2,3.07,3.07,0,0,0-2.55,3.21,2.9,2.9,0,0,0,2.37,2.84,22.41,22.41,0,0,0,4.42.33Q92.76,37.44,113.34,37.4Zm9.38,54.82c7.41,0,14.82,0,22.23,0,2.57,0,5.46,0,5.47-3.38,0-3.06-2.72-3.25-5.13-3.25q-22,0-44,0c-2.46,0-5,.39-5,3.43s2.68,3.22,5.13,3.21C108.55,92.2,115.63,92.22,122.72,92.22ZM90.55,50.94c6.75,0,13.51,0,20.26,0,2.3,0,5.09.25,5.18-3s-2.54-3.3-4.95-3.3q-20.26,0-40.53,0c-2.48,0-5.08.26-5,3.34s2.9,3,5.24,3Q80.67,51,90.55,50.94Zm22.73,48.39c-4.11,0-8.22,0-12.32,0-2.37,0-4.57.56-4.63,3.25S98.42,106,100.8,106c8.21,0,16.43,0,24.65,0,2.34,0,4.48-.68,4.35-3.49s-2.4-3.15-4.69-3.15C121.17,99.34,117.22,99.33,113.28,99.33ZM142,78.43c4.8,0,9.59,0,14.38,0,2.19,0,4.11-.49,4.24-3.07s-1.82-3.27-4-3.27q-14.37,0-28.76,0c-2.17,0-4.14.65-4,3.26s2.06,3.09,4.26,3.08C132.71,78.41,137.33,78.42,142,78.43Zm-36-.05c2.31,0,4.62.08,6.93,0A3,3,0,0,0,116,75.21c0-2-1.33-3-3.18-3.06-4.45-.09-8.91-.07-13.36,0a2.91,2.91,0,0,0-3.14,3.1,3,3,0,0,0,3.2,3.09C101.7,78.46,103.85,78.38,106,78.38ZM144.16,106v0a28.62,28.62,0,0,0,2.93,0c1.78-.2,3.16-1.06,3.36-3a2.86,2.86,0,0,0-2.75-3.4c-3.29-.06-7-1.58-9.69,1.46a2.6,2.6,0,0,0,.55,3.91,6.13,6.13,0,0,0,2.67,1A16.83,16.83,0,0,0,144.16,106Z"/><path class="cls-3" d="M113.34,37.41q-20.58,0-41.14,0a22.41,22.41,0,0,1-4.42-.33,2.9,2.9,0,0,1-2.37-2.84A3.07,3.07,0,0,1,68,31a18.53,18.53,0,0,1,4-.2h82.27a30.81,30.81,0,0,1,3.47.09,3.09,3.09,0,0,1,3,3.28,3,3,0,0,1-2.75,3,28.59,28.59,0,0,1-4.44.21Z"/><path class="cls-3" d="M122.72,92.22c-7.09,0-14.17,0-21.25,0-2.45,0-5.06-.16-5.13-3.21s2.51-3.43,5-3.43q22,0,44,0c2.41,0,5.13.19,5.13,3.25,0,3.4-2.9,3.39-5.47,3.38C137.54,92.2,130.13,92.22,122.72,92.22Z"/><path class="cls-4" d="M90.55,50.94q-9.89,0-19.78,0c-2.34,0-5.14.11-5.24-3s2.5-3.34,5-3.34q20.26,0,40.53,0c2.41,0,5,0,4.95,3.3s-2.88,3-5.18,3C104.06,51,97.3,50.94,90.55,50.94Z"/><path class="cls-3" d="M113.28,99.33c3.94,0,7.89,0,11.83,0,2.29,0,4.55.35,4.69,3.15s-2,3.49-4.35,3.49c-8.22,0-16.44,0-24.65,0-2.38,0-4.54-.73-4.47-3.42s2.26-3.27,4.63-3.25C105.06,99.36,109.17,99.33,113.28,99.33Z"/><path class="cls-4" d="M142,78.42c-4.63,0-9.25,0-13.88,0-2.2,0-4.14-.57-4.26-3.08s1.85-3.26,4-3.26q14.39,0,28.76,0c2.16,0,4.12.59,4,3.27s-2.05,3.08-4.24,3.07C151.55,78.41,146.76,78.43,142,78.42Z"/><path class="cls-4" d="M106,78.38c-2.15,0-4.3.08-6.44,0a3,3,0,0,1-3.2-3.09,2.91,2.91,0,0,1,3.14-3.1c4.45-.09,8.91-.11,13.36,0,1.85,0,3.18,1,3.18,3.06a3,3,0,0,1-3.11,3.14C110.62,78.46,108.31,78.38,106,78.38Z"/><path class="cls-3" d="M144.16,106a16.83,16.83,0,0,1-2.93,0,6.13,6.13,0,0,1-2.67-1A2.6,2.6,0,0,1,138,101c2.72-3,6.4-1.52,9.69-1.46a2.86,2.86,0,0,1,2.75,3.4c-.2,1.9-1.58,2.76-3.36,3a28.62,28.62,0,0,1-2.93,0Z"/></g></g></svg>