<svg xmlns="http://www.w3.org/2000/svg" viewBox="0 0 194.94 186.95"><defs><style>.cls-1{fill:#f27840;}.cls-2{fill:#f27a43;}.cls-3{fill:#f37b45;}.cls-4{fill:#f37c45;}.cls-5{fill:#f37d48;}</style></defs><g id="Layer_2" data-name="Layer 2"><g id="Layer_1-2" data-name="Layer 1"><path class="cls-1" d="M164.82,78c.84-3.63,1.35-6.21.63-8.84-.39-1.46-1-2.89.69-3.94a2.31,2.31,0,0,1,2.78.09c1.34,1,.9,2.29.52,3.6-.83,2.81-.05,5.47.69,8.65,3.52-3.34,3.73-7.5,4.78-11.18.83-2.89,2-3.92,4.89-2.88,1.71.61,3.49,1,5.25,1.52,8.16,2.19,9.54,3.47,9.68,11.84.26,15.9,0,31.81.21,47.71,0,3.55-1.92,3.84-4.41,3.47-4.63-.68-5.87,1.19-5.78,5.74.28,15.4,0,30.81.22,46.22.05,3.75-1.14,4.86-4.83,4.78-9.6-.22-19.22-.27-28.82.05-4.19.14-5-1.52-4.95-5.22.13-29.49.11-59,.13-88.47,0-6.56,0-6.57-6.41-6.57-11.76,0-23.52,0-35.29.06-3.78,0-7.46-.58-8-4.87s2.56-6.68,6.5-7.41c17.26-3.21,34.54-6.25,51.8-9.46,3.19-.59,4.1,1.09,4.69,3.62C160.69,70.35,161.58,74.17,164.82,78Z"/><path class="cls-2" d="M83.49,166.79c-5.86,6-11.7,12-17.61,18-2,2.05-4.47,3.06-7.11,1.14-1.9-1.39-2.77-3.47-1.64-5.68A18.51,18.51,0,0,1,60.49,176c6.16-6.25,12.41-12.42,18.57-18.67,1.11-1.12,2.66-1.94,3.22-4.32H25.21C13,153,8.33,148.41,8.32,136.26q0-46,0-91.94c0-3.57-.27-6.2-4.34-7.66C.82,35.5-.37,32.23.1,28.81A7.72,7.72,0,0,1,6.38,22a24,24,0,0,1,5.44-.35c21.37,0,42.74-.1,64.1.14,4.62.05,6.3-1.32,5.79-5.93a52.12,52.12,0,0,1,0-9.43C82,2.57,84.12.19,88,0s6.28,2,6.69,5.86A56.51,56.51,0,0,1,95,16.27c-.33,4.11,1.07,5.51,5.26,5.45,14.74-.22,29.48-.13,44.23-.11,1.75,0,3.59-.45,5.61.63-2.66,4.08-4.78,8.32-4,13.36.27,1.69-.72,2.43-2.29,2.5s-3.3.14-5,.14c-39.26,0-78.52.12-117.78-.13-5.23,0-6.26,1.52-6.22,6.42.22,30.31.1,60.63.11,90.94,0,9.13,1.65,10.82,10.6,10.82q54.42,0,108.83,0c1.74,0,3.76-.66,5.1,1.09.88,1.16.59,2.55.23,3.83-.6,2.21-2.49,1.8-4.09,1.8q-18.63,0-37.22,0c-.65,2,1,2.43,1.85,3.25,6.51,6.61,13.09,13.14,19.66,19.7,2.4,2.4,3.5,5.15.74,7.78s-5.46,1.61-7.87-.8q-7-7-14.08-14c-.79-.77-1.48-2.19-2.72-1.79-1.68.53-.91,2.25-1,3.45-.14,3,0,6-.19,8.93s-1.83,5.16-5,5.09-4.86-2.14-5-5.17c-.19-3.95,0-7.92,0-11.88Z"/><path class="cls-3" d="M63.48,92.79c0,11.25-.13,22.51.08,33.76.06,3.62-.89,5-4.71,4.82-10.57-.39-8.92,1.34-9-8.9-.09-21.34,0-42.69-.1-64,0-3.91.73-5.68,5.19-5.35,8.48.63,8.5.39,8.5,8.93Z"/><path class="cls-1" d="M182.15,35.72c-.07,2.28-.35,4.42,1.29,6.56a4.73,4.73,0,0,1-.57,6c-3.2,2.69-4.13,6.67-6.6,9.68-4.75,5.78-14.05,5-18.34-1.4-1.63-2.43-2.62-5.2-5.24-7.06a4.73,4.73,0,0,1-1.32-5.92c2.09-3.46,1.57-7,1.48-10.58-.15-6,4.76-7.64,8.68-9.69C171.59,18.06,182.57,24.81,182.15,35.72Z"/><path class="cls-4" d="M43.48,98.87c0,9.26-.14,18.51.07,27.77.08,3.7-1.15,4.81-4.85,4.75-8.72-.17-8.73,0-8.73-8.62,0-17,.12-34-.08-51.07-.05-4.09,1.05-5.5,5.25-5.29,8.78.43,8.34-1.46,8.34,8.16Q43.5,86.72,43.48,98.87Z"/><path class="cls-5" d="M69.91,108.43c0-6.11.11-12.23,0-18.34-.07-2.82,1-3.73,3.75-3.66,11.95.29,9.57-1.47,9.73,9.54.15,10.24-.06,20.49.08,30.73,0,3.2-.53,4.83-4.31,4.68-11.1-.41-9,1.46-9.2-9.08C69.83,117.68,69.91,113.05,69.91,108.43Z"/></g></g></svg>