<svg xmlns="http://www.w3.org/2000/svg" viewBox="0 0 165.36 197.98"><defs><style>.cls-1{fill:#f57c40;}</style></defs><g id="Layer_2" data-name="Layer 2"><g id="Layer_1-2" data-name="Layer 1"><path class="cls-1" d="M70.75,198c-4.61-2.69-10-2.74-14.92-4.67C27.34,182.05,9.42,161.57,4.44,131.43c-5.17-31.23,5.78-57,30.71-76.57,2-1.6,2.65-3,2.54-5.69-.18-4.91.68-9.87,1.32-14.78.38-2.89-.46-4.08-3.49-4.56-9.31-1.49-18.56-3.32-27.84-5-.65-.12-1.29-.29-1.94-.41C2.52,23.82-.06,22.47,0,18.74s2.8-5,5.93-5.54Q25.21,9.62,44.5,6.09c5.2-1,10.61-1.34,15.57-3C79.5-3.48,98.32,2,117.25,5.39c13.68,2.48,27.33,5.09,41,7.64.65.12,1.32.15,2,.31,3,.75,5.29,2.23,5.15,5.7-.12,3.15-2.2,4.47-5.06,5.23-3.63,1-9-.14-10.58,2.81-1.76,3.22-.6,8-.69,12.17,0,2,.08,4,0,6-.12,2.42.18,4.33,2.61,5.83,2.84,1.76,4.58,4.92,3.69,8.13-2.38,8.59,1.57,17,.24,25.53-.21,1.35.47,2.92,1,4.29,18,48.25-9.78,98-60.37,107.9-.92.18-2.05-.11-2.54,1.09ZM152.61,19.3l.12-.94c-17-3.14-34.15-6-51.13-9.5-11.25-2.3-22.16-3.57-33.71-.95C49.63,12.07,31.08,15,12.6,18.4c.43,1.29,1.32,1.27,2.11,1.42,12.68,2.32,25.35,4.71,38.05,6.93,16,2.8,31.87,7.76,48.37,2.24,5.12-1.72,10.69-2.1,16.06-3.1ZM61.48,121.53c-5.12,0-10.25.12-15.37,0-2.64-.08-3.43.83-3.29,3.42a137.74,137.74,0,0,0,4.09,26.4c.76,3,2.31,3.43,5,3a135.88,135.88,0,0,1,24.16-2.12c3,.05,3.6-1.17,3.55-3.84-.13-7.77-.16-15.55,0-23.32.07-3-1.09-3.63-3.79-3.53C71.08,121.66,66.28,121.53,61.48,121.53Zm42.93,0c-5.12,0-10.25.08-15.38,0-2.21,0-3.35.44-3.31,3,.1,8.27.08,16.54,0,24.81,0,2.2.94,2.86,3,2.84a150.43,150.43,0,0,1,25.15,2.23c2.71.44,3.87-.45,4.54-3A133.89,133.89,0,0,0,122.53,125c.14-2.53-.54-3.57-3.24-3.47C114.34,121.66,109.37,121.53,104.41,121.53Zm-43.5-6.16c5.13,0,10.25-.08,15.37,0,2.15,0,3.39-.32,3.35-2.91-.11-8.26-.08-16.52,0-24.78,0-2.17-1-2.91-3-2.9A158.32,158.32,0,0,1,51,82.54c-2.27-.36-3.32.46-3.89,2.58A128.92,128.92,0,0,0,42.83,112c-.13,2.52.51,3.57,3.22,3.47C51,115.23,56,115.37,60.91,115.37Zm43.32,0c4.79,0,9.58-.14,14.37,0,2.86.11,4.16-.44,3.94-3.76a142.29,142.29,0,0,0-4.22-26.35c-.62-2.38-1.81-3.15-4.25-2.75A148,148,0,0,1,89,84.8c-2.29,0-3.25.83-3.22,3.2q.12,12.14,0,24.28c0,2.35.77,3.2,3.15,3.13C94,115.27,99.11,115.37,104.23,115.37Zm-80.81,6.46v-.3c-3.3,0-6.62.2-9.9,0s-3.94.93-3.68,4a71,71,0,0,0,8.41,27.74c4.21,7.82,4.29,7.75,12.69,5.46,2.54-.69,5.11-1.28,7.7-1.81,2.3-.48,3.32-1.25,2.38-4-2.15-6.26-2.82-12.86-3.87-19.37-.63-3.87,1.34-9.37-1.65-11.26S27.53,121.83,23.42,121.83Zm119.25-.3c-3.3,0-6.62.21-9.9-.06-3.05-.25-4.19,1-4.16,3.86.06,5.47-.92,10.83-1.58,16.24-.59,4.85-4.68,10.76-2.31,13.91s9,2.91,13.72,4.36c2.7.83,4.45.58,6.11-2.13a75.26,75.26,0,0,0,10.62-29.06c1-7.1.86-7.12-6.06-7.12Zm-120.1-6.16c3.47,0,7-.19,10.4,0,2.91.21,3.81-1,3.77-3.69a90.31,90.31,0,0,1,1.61-16.24c.81-4.82,4.18-11,2.29-14-2-3.09-9-2.81-13.62-4.4-3.08-1.05-4.78-.33-6.44,2.4a75.47,75.47,0,0,0-10.33,28.16c-1.17,7.67-1.06,7.69,6.87,7.69Zm57-65.75a44.45,44.45,0,0,1,.07-6.93c.62-4-1.44-5.06-4.81-5.63-8.62-1.44-17.24-3-25.8-4.74-2.61-.53-3.68.08-3.93,2.65-.35,3.62-.95,7.21-1.23,10.83-.42,5.32,1.27,7.62,6.45,8.88q8.91,2.15,17.85,4.1C79.59,61.27,79.59,61.25,79.59,49.62Zm6.17-.15c0,2.81.13,5.63,0,8.43s1.14,3.33,3.59,2.75c8.83-2.09,17.7-4,26.51-6.18,4.05-1,6.16-3.69,5.7-8-.38-3.62-.9-7.22-1.2-10.84-.24-2.85-1.09-4-4.36-3.22-6.09,1.45-12.3,2.44-18.48,3.48C85.76,37.85,85.75,37.81,85.76,49.47ZM142,115.37h1.48c13.8,0,13.8,0,10.58-13.69-2.31-9.84-2.31-9.94-12.34-10-3.53,0-5.55-.74-5.63-4.88-.19-9.13-.32-9-9.34-6.67-2.44.64-3.17,1.27-2.38,3.92a93.85,93.85,0,0,1,4.19,26.81c0,3.79,1.45,4.89,5,4.52A78.78,78.78,0,0,1,142,115.37ZM79.6,174.72c0-4.29-.14-8.59.05-12.88.11-2.74-.66-3.77-3.6-3.63-7.59.36-15.12,1.17-22.66,2.07-2.49.29-3.14,1.16-2.07,3.52A71.42,71.42,0,0,0,58,175.91c4.55,6.43,9.92,11.89,17.59,14.65,3,1.09,4.2.39,4.05-2.95C79.44,183.32,79.6,179,79.6,174.72Zm6.15,0c0,4.13.18,8.27,0,12.39-.21,3.75.94,4.71,4.5,3.25,12.65-5.17,19-15.84,24.16-27.5.8-1.79-.39-2.31-1.91-2.5-7.85-1-15.72-1.88-23.65-2.14-2.47-.09-3.14.83-3.08,3.12C85.84,165.8,85.75,170.26,85.75,174.72ZM135.69,58.81c.77-2.24.63-5,2.49-6,5.41-2.94,4.47-7.84,4.32-12.47-.13-4.08,1.88-9.61-.89-11.83s-7.75.9-11.82,1.37c-.32,0-.65.11-1,.12-2.14.11-2.8,1.26-2.54,3.3.53,4.09,1.8,8.32,1.21,12.26-1,6.62,2.59,9.85,7.26,12.85A8.32,8.32,0,0,0,135.69,58.81ZM92.28,78.71c4.18-.38,8.3-.77,12.41-1.12,11.37-1,11.63-1.57,5.84-11.67-1.45-2.52-2.82-3.45-5.89-2.52-5,1.54-10.29,2.36-15.43,3.62-1.18.29-3.1.13-3.26,1.7-.28,2.94-.79,6.19.13,8.83S90.23,78,92.28,78.71ZM70.7,78.58c9.81.06,8.63,1.36,9-6.6.15-3.34-1-4.73-4.2-5.2s-6.11-1.37-9.18-2c-10.72-2.31-10.89-2.2-14.72,8.06a3.76,3.76,0,0,1-.2.46c-1.32,2.39-.32,3.15,2.1,3.39C59.89,77.29,66.29,78.08,70.7,78.58Zm37,107.07c2.53,1.11,4.31,0,6.06-.82a75.4,75.4,0,0,0,20.88-14.73c3.82-3.81,3.79-3.91-1.61-5.38-2.86-.78-5.8-1.25-8.62-2.13-2.27-.71-3.28.1-4.08,2.14A72.36,72.36,0,0,1,107.67,185.65ZM27.48,166.49c8.19,9.19,17.43,16,29.11,19.43-4.72-7.38-9.09-14.69-12.28-22.64-.46-1.16-1.52-1.14-2.53-.86C37.21,163.69,32.39,164.16,27.48,166.49ZM50,62a5.08,5.08,0,0,0-.75-1.08c-3.09-2.65-8.43-2.66-11.75,0a35.05,35.05,0,0,0-3.41,2.88c-2.12,2.18-6.18,3.85-5.6,6.82.4,2,4.87,1.82,7.51,2.62a53.64,53.64,0,0,0,5.3,1.25c.78.14,2.14.28,2.33-.07C45.81,70.31,47.84,66.18,50,62Zm73.5,12.65c3.2-.79,6.4-1.6,9.61-2.37,3.71-.88,4.46-2.65,1.55-5.36q-3.82-3.53-7.85-6.83c-2-1.63-9.41-.82-11,1-.54.64-.27,1.21,0,1.78,1.62,3.43,3.27,6.85,4.89,10.28A2.27,2.27,0,0,0,123.48,74.6ZM149.28,78c0-1.8.06-3.61,0-5.41-.09-2.19-1-3.94-3.43-4s-3.49,1.58-3.54,3.83c-.08,3.44.07,6.89-.07,10.33-.12,2.73,1.52,2.78,3.48,2.73s3.76.27,3.61-2.58C149.22,81.33,149.29,79.68,149.28,78Zm-6.94-19.32A3.19,3.19,0,0,0,145.78,62a3.07,3.07,0,0,0,3.37-3.35,3.26,3.26,0,0,0-3.4-3.42C143.78,55.22,142.54,56.57,142.34,58.72Z"/></g></g></svg>