<svg xmlns="http://www.w3.org/2000/svg" viewBox="0 0 190.88 191.92"><defs><style>.cls-1{fill:#fefdfd;}.cls-2{fill:#f37d48;}.cls-3{fill:#f37b45;}.cls-4{fill:#f27941;}.cls-5{fill:#f37c46;}</style></defs><g id="Layer_2" data-name="Layer 2"><g id="Layer_1-2" data-name="Layer 1"><path class="cls-1" d="M11.63,0C4.89,0,.05,4.9,0,11.78a11.7,11.7,0,0,0,11.74,12.1,12,12,0,0,0,12-11.94C23.8,5,18.7,0,11.63,0ZM9.45,40.67c-2.49-.09-7.66,4.9-7.8,7.52,0,.62,6.73,8,7.38,8.09s8.29-7.42,8.31-8.09S10.3,40.7,9.45,40.67Z"/><path class="cls-2" d="M95.94,176.76c-4.8,0-9.61.14-14.41,0-6.28-.23-8.72-2.66-8.66-8.92,0-5.54-2.29-9.49-6.82-12.4-4.32-2.77-8.84-5.29-12.85-8.44A69.58,69.58,0,0,1,48,42c6.86-6.62,6.16-6.38,3-15.46-3.24-9.29-8.65-13.21-18.27-11.42-2,.38-3.21-.74-3.4-2.68s1.08-2.9,2.93-3.32c10.44-2.38,18.7,1.9,22.83,11.92.57,1.37,1,2.81,1.56,4.18,2,5,4.22,6,9.33,4,5.39-2.1,10.71-4.35,16.39-5.65,39.24-9,79.26,19.69,83.66,59.73q4.1,37.36-23.86,62.16c-2.06,1.83-2.53,3.51-1.6,6.06,2.95,8.16,5.07,9.6,14.27,10.12,2.32.13,6.37-1.37,6.46,2.47.1,4.06-4,3.64-6.88,3.73-8.57.25-14.7-3.76-18-12-1.15-2.92-2.8-3.4-5.36-2.48-4.8,1.73-8.08,4.66-9.34,10-3.16,13.38-3.42,13.45-17.33,13.47H95.94ZM99,154.32h.21c0,3.31-.13,6.63,0,9.93.29,5.94,1.55,6.84,8.9,6.8,6.52-.05,7.83-1,7.82-6.71s2.51-9.83,7-12.93c2.59-1.77,5.31-3.36,8-5,37.86-22.65,38.78-77.13,7.26-103.38C117.18,25.5,88,22.58,64.22,36.72,40.11,51.07,27.85,78.33,33.58,104.91c4.28,19.82,15.68,34.33,33.26,44.09,7.14,4,12.19,9.09,11.8,17.91a3.69,3.69,0,0,0,2.44,3.89c6.59,2.91,11.82,0,12.2-7.18.3-5.77.16-11.58.15-17.37s-1.17-6.85-7.06-6.69c-1.93.05-3.8.2-3.9-2.46-.1-2.5,1.57-3,3.59-3q9.43,0,18.87,0c2.2,0,4.22.47,4,3.18-.22,2.4-2.12,2.57-4.13,2.27-4.13-.61-5.78,1.49-5.75,5.39C99.05,148,99,151.18,99,154.32Z"/><path class="cls-3" d="M97,191.88c-5.62,0-11.24-.08-16.85,0-3.54.06-5.25-1.57-5.31-5s1.51-5.74,5.25-5.76q16.85-.08,33.71,0c3.72,0,5.3,2.11,5.28,5.71,0,3.87-2.1,5.15-5.72,5.06C107.9,191.78,102.45,191.88,97,191.88Z"/><path class="cls-4" d="M11.63,0C18.7,0,23.8,5,23.78,11.94a12,12,0,0,1-12,11.94A11.7,11.7,0,0,1,0,11.78C.05,4.9,4.89,0,11.63,0Z"/><path class="cls-4" d="M179.3,152.94c6.9.16,11.78,5.24,11.57,12.07-.19,6.31-6.05,11.93-12.28,11.79-6.38-.15-11.66-5.85-11.53-12.46C167.18,157.54,172.29,152.79,179.3,152.94Z"/><path class="cls-3" d="M9.45,40.67c.85,0,7.9,6.76,7.89,7.52S9.64,56.34,9,56.28s-7.42-7.47-7.38-8.09C1.79,45.57,7,40.58,9.45,40.67Z"/><path class="cls-5" d="M182.32,138.22c-1,0-7.41-5.74-7.41-6.63,0-2.06,5.19-8.32,6.82-8.21,2.67.17,7.24,4.82,7.2,7.33C188.91,132.51,183.87,138.23,182.32,138.22Z"/><path class="cls-4" d="M124.06,109.48c-2.82,0-5.63,0-8.45,0-1.13,0-2.47.2-3-1.2s.38-2.23,1.2-3,1.76-1.51,2.62-2.27c1.13-1,2.51-2,1.24-3.7s-2.89-1.43-4.49-.64c-1.76.87-2.5,2.54-3.11,4.3-1.62,4.68-5,6.77-9.89,6.67-3-.06-6-.1-8.94,0-5.11.26-9.17-1-10.8-6.52a5.59,5.59,0,0,0-2.15-2.63c-1.75-1.2-3.66-4-5.85-1.38s.85,3.61,2.4,4.89c1.29,1.06,2.86,2,2.1,4-.82,2.13-2.67,1.94-4.61,1.79-4-.29-7.94-.21-11.9-.48-7.1-.48-12-4.62-13.78-11.53A15.25,15.25,0,0,1,53.1,80.9c2.08-1.41,4.2-2.17,6.31-.17,2.47,2.35-.31,3.31-1.33,4.75a6.8,6.8,0,0,0-1,1.72c-.68,2-3.46,4.26-.39,6,2.87,1.61,3.37-1.66,4.34-3.35,1.7-2.95,3.37-2.94,5.07-.14.91,1.48,2.07,2.29,3.68,1.5s.9-2.31.63-3.54c-.74-3.48-2-6.77-5-8.86-3.9-2.69-4-6-2.35-10,4-9.39,15.44-15,25-12.2,5.34,1.58,8,8.6,5,13.29-1,1.65-2.65,1.89-4.35,1.73a11,11,0,0,0-7.44,2.25,2.36,2.36,0,0,0-.74,3.47c.75,1.24,1.76,1.1,3,.79,10.1-2.44,10.11-2.42,10.16,8.3,0,3.15-.09,6.3,0,9.44.08,1.85-.37,4.51,2.61,4.37,2.66-.12,2.05-2.57,2.07-4.27.08-7.12,0-14.25.11-21.37.13-6.91,2.12-8.2,8.66-5.86.78.28,1.52.66,2.3.93a2.43,2.43,0,0,0,3.28-1.39c.65-1.35-.21-2.17-1.21-2.88a13.26,13.26,0,0,0-8.85-2.64c-1.44.11-3.28.35-3.78-1.51s1-2.6,2.36-3.34c10.41-5.76,26.49,1.47,29.08,13.09,1.15,5.13-.29,7.77-5.3,9.5a18.82,18.82,0,0,1-3.85.94c-2,.26-4.17.37-4.11,3.18,0,2.56,2.14,2,3.67,2.15a3.57,3.57,0,0,1,3.37,3.12c.42,2.09,1.81,3.49,3.14,5,1.19,1.31,2.56,2.37,4.24.89s.67-3-.59-4.18c-3.48-3.33-2.79-6.22.62-9.17,4.18-3.61,6.12-3.64,10.14.26,5.14,5,5.81,11,3.59,17.37-2.15,6.18-6.88,9.08-13.32,9.27-2.64.08-5.29,0-7.94,0Z"/></g></g></svg>